<svg width="24" height="24" viewBox="0 0 24 24" fill="none" xmlns="http://www.w3.org/2000/svg">
<path d="M9.27262 22C9.77469 22 10.1817 21.5949 10.1817 21.0952C10.1817 20.5956 9.77469 20.1905 9.27262 20.1905C8.77054 20.1905 8.36353 20.5956 8.36353 21.0952C8.36353 21.5949 8.77054 22 9.27262 22Z" fill="black" stroke="black" stroke-width="2" stroke-linecap="round" stroke-linejoin="round"/>
<path d="M19.2726 22C19.7747 22 20.1817 21.5949 20.1817 21.0952C20.1817 20.5956 19.7747 20.1905 19.2726 20.1905C18.7705 20.1905 18.3635 20.5956 18.3635 21.0952C18.3635 21.5949 18.7705 22 19.2726 22Z" fill="black" stroke="black" stroke-width="2" stroke-linecap="round" stroke-linejoin="round"/>
<path d="M2 3H5.63636L8.07273 15.1148C8.15586 15.5313 8.38355 15.9055 8.71595 16.1718C9.04835 16.4381 9.46427 16.5796 9.89091 16.5714H18.7273C19.1539 16.5796 19.5698 16.4381 19.9022 16.1718C20.2346 15.9055 20.4623 15.5313 20.5455 15.1148L22 7.52381H6.54545" stroke="black" stroke-width="2" stroke-linecap="round" stroke-linejoin="round"/>
</svg>
