<svg width="32" height="32" viewBox="0 0 32 32" fill="none" xmlns="http://www.w3.org/2000/svg">
<path d="M29 21.521V10.3645C28.9995 9.87538 28.8709 9.395 28.6271 8.97155C28.3834 8.5481 28.033 8.19646 27.6111 7.9519L17.8889 2.37367C17.4666 2.12887 16.9876 2 16.5 2C16.0124 2 15.5334 2.12887 15.1111 2.37367L5.38889 7.9519C4.96703 8.19646 4.61664 8.5481 4.37286 8.97155C4.12909 9.395 4.0005 9.87538 4 10.3645V21.521C4.0005 22.0101 4.12909 22.4904 4.37286 22.9139C4.61664 23.3373 4.96703 23.689 5.38889 23.9335L15.1111 29.5118C15.5334 29.7566 16.0124 29.8854 16.5 29.8854C16.9876 29.8854 17.4666 29.7566 17.8889 29.5118L27.6111 23.9335C28.033 23.689 28.3834 23.3373 28.6271 22.9139C28.8709 22.4904 28.9995 22.0101 29 21.521Z" stroke="black" stroke-width="2.5" stroke-linecap="round" stroke-linejoin="round"/>
<path d="M4.375 8.91406L16.5 15.9566L28.625 8.91406" stroke="black" stroke-width="2.5" stroke-linecap="round" stroke-linejoin="round"/>
<path d="M16.5 30V15.9429" stroke="black" stroke-width="2.5" stroke-linecap="round" stroke-linejoin="round"/>
</svg>
