<svg width="24" height="24" viewBox="0 0 24 24" fill="none" xmlns="http://www.w3.org/2000/svg">
<circle cx="12" cy="12" r="12" fill="#00CC96"/>
<path d="M18 12.5405C17.8949 13.6778 17.4681 14.7615 16.7696 15.665C16.071 16.5685 15.1296 17.2544 14.0554 17.6424C12.9813 18.0304 11.8189 18.1044 10.7042 17.8559C9.5895 17.6073 8.56866 17.0465 7.7611 16.2389C6.95354 15.4313 6.39267 14.4105 6.14412 13.2958C5.89557 12.1811 5.96962 11.0187 6.35761 9.94457C6.74559 8.87043 7.43147 7.929 8.33497 7.23045C9.23848 6.53189 10.3222 6.10509 11.4595 6C10.7937 6.90076 10.4733 8.01056 10.5566 9.12758C10.6399 10.2446 11.1213 11.2946 11.9134 12.0866C12.7054 12.8787 13.7554 13.3601 14.8724 13.4434C15.9894 13.5267 17.0992 13.0126 18 12.3468V12.5405Z" stroke="white" stroke-linecap="round" stroke-linejoin="round"/>
</svg>
