<svg width="20" height="20" viewBox="0 0 20 20" fill="none" xmlns="http://www.w3.org/2000/svg">
<path d="M14.5 1H5.5C3.01472 1 1 3.01472 1 5.5V14.5C1 16.9853 3.01472 19 5.5 19H14.5C16.9853 19 19 16.9853 19 14.5V5.5C19 3.01472 16.9853 1 14.5 1Z" stroke="black" stroke-width="2" stroke-linecap="round" stroke-linejoin="round"/>
<path d="M13.6 9.43229C13.7111 10.1813 13.5831 10.9463 13.2344 11.6184C12.8856 12.2905 12.3338 12.8356 11.6575 13.176C10.9811 13.5164 10.2146 13.6349 9.46701 13.5146C8.71941 13.3943 8.02878 13.0414 7.49335 12.5059C6.95792 11.9705 6.60496 11.2799 6.48466 10.5323C6.36436 9.78469 6.48286 9.0182 6.82329 8.34183C7.16373 7.66546 7.70877 7.11366 8.38089 6.76491C9.053 6.41616 9.81798 6.28822 10.567 6.39929C11.331 6.51259 12.0384 6.86861 12.5845 7.41477C13.1307 7.96093 13.4867 8.66826 13.6 9.43229Z" stroke="black" stroke-width="2" stroke-linecap="round" stroke-linejoin="round"/>
<path d="M14.95 5.05029H14.9583" stroke="black" stroke-width="2" stroke-linecap="round" stroke-linejoin="round"/>
</svg>
