<svg width="22" height="18" viewBox="0 0 22 18" fill="none" xmlns="http://www.w3.org/2000/svg">
<path d="M21 1.00897C20.1294 1.61128 19.1656 2.07195 18.1455 2.37324C17.5979 1.75576 16.8703 1.3181 16.0609 1.11947C15.2516 0.920833 14.3995 0.970799 13.6201 1.26261C12.8406 1.55442 12.1713 2.07399 11.7027 2.75105C11.2341 3.42812 10.9888 4.23001 11 5.04827V5.93995C9.40239 5.98058 7.81934 5.63305 6.39183 4.92829C4.96431 4.22354 3.73665 3.18362 2.81818 1.90082C2.81818 1.90082 -0.818182 9.92575 7.36364 13.4925C5.49139 14.739 3.26105 15.364 1 15.2758C9.18182 19.7342 19.1818 15.2758 19.1818 5.02152C19.181 4.77315 19.1566 4.52539 19.1091 4.28143C20.0369 3.38395 20.6917 2.25082 21 1.00897Z" stroke="black" stroke-width="2" stroke-linecap="round" stroke-linejoin="round"/>
</svg>
